<?xml version="1.0" standalone="no"?>
<!DOCTYPE svg PUBLIC "-//W3C//DTD SVG 20010904//EN"
 "http://www.w3.org/TR/2001/REC-SVG-20010904/DTD/svg10.dtd">
<svg version="1.0" xmlns="http://www.w3.org/2000/svg"
 width="2417.000000pt" height="2417.000000pt" viewBox="0 0 2417.000000 2417.000000"
 preserveAspectRatio="xMidYMid meet">
<metadata>
Created by potrace 1.11, written by Peter Selinger 2001-2013
</metadata>
<g transform="translate(0.000000,2417.000000) scale(0.100000,-0.100000)"
fill="#000000" stroke="none">
<path d="M11757 23703 c-2 -1 -70 -4 -152 -7 -83 -4 -181 -8 -220 -10 -160
-10 -243 -16 -300 -22 -33 -3 -78 -7 -100 -9 -97 -8 -162 -15 -195 -20 -19 -2
-60 -7 -90 -10 -30 -4 -66 -8 -80 -10 -14 -2 -63 -9 -110 -15 -47 -6 -101 -13
-120 -16 -50 -7 -280 -44 -310 -50 -29 -5 -223 -42 -262 -49 -41 -7 -74 -14
-105 -21 -16 -4 -35 -8 -43 -9 -8 -1 -26 -5 -40 -8 -31 -8 -290 -68 -310 -72
-8 -2 -44 -11 -80 -20 -36 -9 -72 -19 -80 -20 -8 -2 -15 -4 -15 -5 0 -1 -7 -3
-15 -5 -8 -1 -42 -10 -75 -19 -62 -17 -89 -24 -115 -31 -8 -2 -16 -4 -17 -5
-3 -3 -5 -3 -48 -15 -65 -17 -331 -98 -340 -103 -5 -4 -15 -7 -22 -8 -17 -3
-108 -32 -168 -54 -121 -44 -227 -82 -238 -84 -7 -2 -25 -9 -42 -15 -16 -7
-66 -27 -110 -43 -125 -47 -166 -64 -217 -86 -27 -12 -48 -19 -48 -15 0 3 -6
1 -12 -4 -7 -6 -58 -29 -113 -53 -143 -60 -244 -105 -374 -166 -62 -30 -118
-54 -123 -54 -5 0 -14 -4 -21 -10 -7 -5 -104 -56 -217 -114 -113 -57 -223
-114 -245 -126 -22 -13 -65 -37 -95 -53 -30 -17 -77 -43 -105 -58 -27 -16 -59
-33 -70 -39 -24 -12 -58 -33 -65 -40 -3 -3 -30 -18 -60 -34 -30 -16 -57 -33
-60 -36 -3 -4 -23 -17 -45 -29 -22 -12 -52 -29 -67 -39 -15 -9 -55 -35 -90
-56 -72 -45 -442 -290 -474 -315 -12 -9 -32 -23 -44 -31 -12 -8 -28 -21 -36
-27 -7 -7 -17 -13 -23 -13 -6 0 -11 -4 -11 -10 0 -5 -4 -10 -10 -10 -9 0 -35
-19 -65 -47 -8 -7 -18 -13 -24 -13 -6 0 -11 -4 -11 -10 0 -5 -6 -10 -14 -10
-8 0 -16 -4 -18 -8 -1 -5 -30 -28 -63 -52 -33 -25 -76 -57 -95 -73 -19 -15
-40 -31 -45 -35 -6 -4 -55 -43 -110 -87 -123 -98 -127 -101 -184 -148 -96 -81
-122 -103 -145 -122 -76 -67 -163 -143 -182 -160 -12 -11 -57 -51 -99 -90
-215 -194 -469 -448 -750 -750 -31 -34 -105 -117 -172 -195 -21 -24 -45 -51
-53 -60 -8 -8 -48 -56 -89 -105 -40 -50 -78 -91 -82 -93 -5 -2 -9 -8 -9 -14 0
-6 -11 -21 -25 -34 -14 -13 -25 -27 -25 -31 0 -4 -15 -24 -33 -43 -17 -19 -61
-73 -97 -120 -35 -47 -68 -89 -73 -95 -78 -98 -311 -426 -433 -610 -32 -49
-62 -92 -65 -95 -3 -3 -14 -21 -24 -40 -10 -19 -28 -48 -40 -65 -33 -44 -195
-315 -195 -326 0 -5 -3 -9 -8 -9 -4 0 -22 -28 -41 -62 -18 -35 -49 -92 -70
-128 -20 -36 -54 -96 -75 -135 -21 -38 -51 -92 -66 -120 -46 -83 -260 -515
-265 -535 -1 -3 -16 -36 -34 -74 -17 -39 -38 -84 -45 -100 -8 -17 -27 -60 -43
-96 -17 -36 -69 -164 -117 -285 -48 -121 -91 -229 -96 -240 -20 -50 -32 -84
-29 -87 1 -2 -4 -14 -11 -28 -8 -14 -15 -29 -16 -35 -5 -22 -111 -322 -118
-333 -4 -7 -5 -12 -2 -12 3 0 -1 -17 -8 -37 -8 -21 -27 -78 -42 -128 -14 -49
-32 -108 -40 -130 -7 -22 -22 -74 -33 -115 -45 -162 -83 -303 -86 -319 -2 -9
-13 -54 -25 -101 -11 -47 -23 -93 -25 -103 -2 -10 -6 -26 -9 -35 -3 -9 -8 -30
-11 -47 -2 -16 -7 -39 -10 -50 -18 -77 -24 -104 -28 -130 -3 -16 -17 -84 -30
-150 -14 -66 -28 -138 -31 -160 -3 -22 -8 -51 -11 -65 -3 -14 -8 -41 -11 -60
-3 -19 -7 -46 -10 -60 -2 -14 -7 -41 -10 -60 -3 -19 -7 -46 -10 -60 -2 -14 -6
-45 -9 -70 -3 -25 -8 -56 -10 -70 -3 -14 -7 -41 -9 -60 -22 -168 -25 -190 -41
-335 -12 -113 -34 -372 -40 -470 -2 -33 -7 -112 -11 -175 -4 -63 -8 -329 -8
-590 0 -415 4 -578 19 -785 10 -147 16 -215 20 -260 2 -27 7 -77 10 -110 3
-33 8 -76 10 -95 3 -19 7 -60 10 -90 6 -62 10 -95 19 -160 3 -25 8 -61 10 -80
7 -55 17 -123 22 -150 2 -14 7 -43 10 -65 5 -37 19 -125 28 -170 2 -11 7 -40
11 -65 13 -76 15 -91 40 -215 13 -66 26 -131 28 -145 2 -14 6 -32 10 -40 3 -8
10 -44 17 -80 7 -36 16 -79 22 -97 5 -17 11 -43 14 -58 9 -48 92 -382 101
-405 3 -8 7 -19 8 -25 8 -33 38 -136 69 -240 20 -66 38 -127 40 -135 8 -28
115 -345 146 -430 17 -47 33 -89 34 -95 2 -5 6 -18 10 -27 4 -9 9 -22 10 -30
2 -7 9 -26 16 -43 7 -16 14 -34 15 -40 4 -13 54 -142 70 -180 25 -56 43 -100
73 -175 44 -110 162 -373 174 -387 6 -7 8 -13 5 -13 -3 0 51 -114 120 -253 69
-138 125 -254 124 -256 -2 -2 3 -7 11 -12 7 -5 13 -12 14 -16 0 -4 11 -29 24
-56 l24 -47 36 38 c19 20 53 59 75 86 22 27 47 56 55 66 8 10 31 37 52 61 20
24 44 54 55 66 10 12 34 41 53 64 19 23 40 47 45 53 6 6 46 54 90 106 91 108
92 109 176 210 34 41 67 80 73 86 6 6 29 33 51 60 22 26 78 93 125 149 46 55
91 108 100 119 8 10 20 23 25 30 12 13 105 125 120 143 5 7 21 25 35 40 14 16
43 51 65 78 22 27 45 55 50 61 6 6 30 35 55 64 25 30 52 61 61 70 8 9 22 25
30 37 8 11 35 44 60 74 76 88 122 142 159 188 19 24 49 58 65 77 17 18 40 46
52 61 12 15 30 37 40 48 10 11 36 42 58 70 22 27 47 56 55 65 24 27 61 70 139
165 123 149 137 161 173 143 14 -7 135 -158 322 -402 21 -28 62 -80 90 -116
28 -36 54 -69 58 -75 4 -5 21 -26 38 -46 16 -20 30 -41 30 -47 0 -6 3 -12 8
-14 7 -3 41 -43 82 -98 14 -18 46 -61 72 -94 27 -34 51 -66 55 -71 5 -6 33
-42 63 -80 31 -39 67 -86 80 -105 13 -19 29 -40 35 -46 5 -6 21 -25 35 -43 14
-18 31 -39 37 -46 7 -8 13 -18 13 -24 0 -6 4 -11 8 -11 5 0 24 -21 42 -47 19
-27 39 -53 45 -59 10 -11 39 -48 69 -89 8 -11 17 -18 19 -15 4 4 50 196 72
303 2 10 6 26 9 35 3 9 7 28 10 42 2 14 13 64 25 112 25 106 31 135 36 169 2
14 9 38 14 52 6 15 8 27 6 27 -2 0 0 11 5 26 6 14 12 39 15 57 3 18 15 68 25
112 11 44 26 112 35 150 18 84 21 97 35 156 6 26 13 53 14 60 3 15 12 53 27
114 5 22 11 49 13 60 2 11 18 81 36 155 17 74 33 144 36 155 8 42 13 63 34
155 23 99 27 117 35 150 9 35 13 53 39 170 15 63 28 124 31 135 6 29 96 418
99 430 4 14 28 128 30 140 1 6 5 19 9 30 3 11 9 34 12 50 13 65 17 82 32 140
8 33 17 74 20 90 13 80 55 220 70 237 32 36 71 47 248 73 17 2 40 6 51 9 12 2
39 7 60 10 34 6 156 27 234 41 14 2 68 11 120 20 137 23 143 24 170 30 14 3
41 7 60 9 19 3 46 8 60 11 14 3 39 7 55 10 17 2 84 13 150 25 66 11 135 23
154 26 18 3 42 7 51 9 10 2 40 7 67 11 26 5 50 9 53 9 6 1 85 15 120 21 14 2
34 6 45 8 11 2 40 7 65 11 25 4 54 9 65 11 10 2 37 6 60 9 22 3 47 8 55 10 8
2 29 6 45 9 39 6 334 57 360 62 10 2 35 6 55 9 20 3 47 8 60 10 14 3 45 8 69
11 24 2 47 6 50 9 4 2 30 7 57 11 27 3 58 8 69 10 52 10 134 24 170 29 22 4
47 8 55 10 8 3 33 7 55 10 22 3 51 8 65 11 64 12 76 14 110 19 20 3 47 8 60
10 14 3 54 10 90 16 36 5 139 23 230 39 91 16 181 31 200 34 19 3 47 8 63 11
39 7 74 13 126 22 48 7 56 9 69 13 4 1 10 2 13 2 3 -1 53 7 110 18 57 10 107
16 111 14 5 -3 9 -2 9 3 1 4 3 1084 4 2398 1 1858 4 2395 13 2412 12 22 61 53
92 60 61 13 126 -5 161 -45 l24 -27 0 -2373 0 -2372 25 4 c14 2 25 5 25 6 0 1
12 3 26 5 36 5 89 13 119 20 14 3 45 7 69 10 24 2 51 7 60 9 9 3 32 8 51 11
19 3 71 12 115 20 44 7 96 16 115 19 19 3 46 8 60 11 13 2 40 7 60 10 20 3 47
8 60 10 14 3 39 7 55 9 17 3 42 7 55 10 14 3 41 8 60 10 19 3 60 10 90 17 30
6 62 11 70 11 8 0 33 4 55 9 22 4 54 10 70 13 32 5 117 19 125 21 3 0 27 4 53
9 27 4 59 9 70 12 12 2 40 6 62 9 22 3 47 7 55 10 8 3 32 7 54 9 21 3 46 8 55
10 9 3 34 7 56 10 22 3 76 12 120 20 44 8 96 17 115 20 36 6 70 12 118 21 15
3 46 8 70 10 24 3 46 6 50 9 4 2 28 7 52 11 25 3 81 12 125 20 44 8 96 17 115
20 19 3 46 8 60 10 53 11 69 13 121 20 30 4 57 9 60 11 3 2 25 6 47 9 23 2 60
9 84 14 24 5 50 9 58 9 8 0 26 3 40 6 14 3 43 8 65 11 22 3 47 7 55 10 8 2 31
7 50 10 19 3 62 11 95 17 33 6 69 12 80 13 11 2 34 6 50 9 17 3 47 8 69 11 21
4 48 9 60 11 11 2 41 7 66 10 25 3 48 8 52 10 3 2 28 7 54 10 27 3 51 7 54 9
4 2 29 7 57 10 50 6 67 8 113 19 14 3 43 8 65 11 22 3 63 9 90 15 28 5 66 12
85 14 19 3 46 8 60 11 13 2 42 7 65 10 22 3 47 8 55 10 8 2 33 6 55 10 38 5
122 20 175 30 13 3 42 7 65 10 22 3 47 8 55 10 8 2 35 7 60 10 25 3 52 8 60
10 8 2 31 6 50 9 19 3 45 8 56 10 26 5 90 16 124 21 20 3 226 39 350 61 14 2
57 9 95 15 79 13 100 17 100 19 0 1 9 3 20 4 11 2 43 6 70 11 28 4 55 8 60 8
7 0 11 984 11 3101 l0 3101 22 41 c62 120 216 171 370 124 60 -19 137 -95 152
-151 9 -33 13 -773 14 -3079 1 -3028 1 -3035 21 -3034 11 1 36 5 55 9 19 4 44
8 55 10 47 7 102 17 125 21 14 3 39 7 55 9 17 2 41 6 55 9 13 3 40 8 60 11 20
3 47 7 60 10 26 5 65 12 115 20 17 2 41 7 55 10 14 3 41 7 60 9 19 3 46 8 60
11 14 3 42 7 63 10 21 3 48 7 60 10 23 5 32 7 172 30 169 29 260 45 285 49 14
3 41 7 60 10 37 6 49 8 175 31 78 14 119 21 180 30 26 3 157 26 235 41 14 2
41 7 60 10 19 2 58 9 85 14 28 5 66 12 85 15 19 3 49 8 65 11 17 3 46 7 65 10
19 2 42 6 50 9 8 2 31 7 50 10 19 3 60 10 90 15 30 5 71 12 90 15 19 3 42 8
50 10 8 2 37 6 64 10 27 3 52 8 56 10 3 2 27 6 54 9 28 3 90 26 145 53 53 26
98 47 101 48 3 0 12 5 20 10 8 5 60 31 115 57 55 27 107 52 115 57 19 12 223
114 230 115 3 1 10 4 16 8 29 19 1155 578 1163 578 5 0 11 3 13 8 2 4 46 28
98 53 52 25 129 63 170 84 41 22 77 40 80 40 8 3 81 39 140 70 30 16 61 30 68
31 8 1 21 9 30 16 10 7 64 36 122 63 58 28 108 55 112 60 4 6 8 7 8 2 0 -4 17
3 38 16 20 13 40 25 44 26 9 1 52 22 338 166 107 53 197 99 199 100 3 4 -45
177 -87 310 -14 44 -25 81 -24 82 0 2 -20 62 -45 135 -24 73 -46 138 -47 143
-1 6 -7 24 -13 40 -14 35 -99 271 -120 330 -7 22 -18 49 -23 60 -5 11 -23 56
-40 100 -17 44 -37 94 -44 110 -8 17 -24 55 -36 85 -12 30 -28 69 -36 85 -7
17 -46 102 -85 190 -55 124 -231 488 -288 595 -4 8 -12 24 -18 35 -9 18 -46
86 -112 207 -14 25 -39 70 -55 100 -15 29 -34 60 -42 69 -8 8 -14 20 -14 26 0
5 -18 38 -40 72 -22 34 -40 66 -40 71 0 6 -4 10 -10 10 -5 0 -10 6 -10 14 0 7
-7 19 -15 26 -8 7 -13 16 -10 20 2 4 -4 15 -15 25 -11 10 -20 21 -20 26 0 18
-355 560 -372 567 -4 2 -8 10 -8 18 0 8 -3 14 -7 14 -5 0 -21 21 -38 48 -16
26 -32 49 -35 52 -3 3 -17 21 -30 40 -14 19 -28 40 -33 45 -13 16 -90 120
-112 151 -31 43 -69 89 -77 92 -5 2 -8 8 -8 13 0 9 -294 374 -365 453 -6 6
-39 45 -75 86 -36 41 -74 84 -85 96 -11 11 -54 59 -95 104 -102 113 -551 564
-675 677 -131 119 -203 184 -229 206 -11 9 -35 30 -51 45 -17 15 -53 45 -80
67 -27 22 -53 45 -59 50 -6 6 -36 30 -66 55 -30 25 -61 51 -68 58 -8 7 -30 25
-50 40 -21 15 -39 29 -42 32 -3 3 -25 21 -50 40 -57 44 -79 62 -94 76 -6 6
-18 15 -27 20 -9 5 -32 21 -50 36 -19 15 -63 48 -99 74 -36 26 -97 71 -136
100 -39 29 -169 118 -290 199 -120 80 -223 149 -229 153 -11 8 -161 102 -187
117 -10 6 -72 43 -138 83 -67 39 -125 72 -130 72 -4 0 -10 4 -12 8 -3 9 -51
36 -333 189 -91 49 -609 305 -625 309 -3 0 -32 13 -65 28 -33 15 -69 31 -80
35 -11 5 -40 18 -65 29 -25 11 -74 33 -110 47 -36 15 -78 33 -95 40 -72 30
-170 70 -175 70 -4 0 -120 45 -195 75 -11 4 -33 13 -50 18 -63 22 -211 74
-225 79 -8 3 -19 7 -25 9 -5 1 -59 19 -120 39 -60 20 -137 45 -170 55 -189 57
-265 80 -301 89 -21 5 -55 14 -74 20 -52 14 -303 79 -331 85 -13 3 -42 10 -64
15 -54 13 -175 40 -200 45 -11 3 -65 14 -120 26 -55 11 -113 23 -130 26 -16 3
-66 12 -110 20 -256 47 -291 52 -358 59 -26 2 -51 6 -55 9 -4 2 -39 7 -77 11
-39 4 -72 9 -75 10 -3 2 -37 7 -75 10 -38 4 -76 8 -85 10 -8 1 -44 6 -80 10
-36 4 -81 9 -100 11 -19 2 -64 7 -100 9 -36 3 -83 7 -105 10 -75 7 -210 17
-280 20 -38 2 -119 7 -180 10 -104 6 -853 13 -858 8z"/>
<path d="M23420 14329 c-8 -5 -51 -25 -95 -45 -44 -20 -117 -54 -162 -75 -46
-22 -84 -39 -87 -39 -2 0 -56 -25 -121 -55 -64 -30 -118 -55 -120 -55 -3 0
-42 -18 -87 -39 -208 -98 -393 -181 -405 -182 -5 0 -16 -8 -25 -16 -10 -9 -18
-13 -18 -9 0 3 -24 -6 -52 -21 -29 -15 -55 -27 -58 -28 -3 0 -32 -14 -65 -29
-33 -16 -62 -30 -65 -31 -14 -5 -63 -27 -140 -62 -47 -22 -134 -62 -195 -89
-60 -27 -111 -52 -113 -56 -2 -5 -10 -8 -18 -8 -8 0 -22 -4 -32 -10 -19 -10
-141 -67 -217 -100 -27 -12 -77 -35 -110 -50 -136 -63 -200 -93 -205 -95 -31
-11 -68 -27 -80 -35 -8 -6 -21 -12 -27 -15 -37 -15 -49 -18 -55 -17 -5 1 -8
-2 -8 -8 0 -5 -4 -10 -9 -10 -5 0 -38 -13 -73 -29 -35 -16 -85 -39 -113 -51
-27 -12 -84 -38 -125 -57 -365 -170 -407 -185 -560 -198 -25 -2 -56 -7 -70 -9
-31 -7 -83 -14 -140 -20 -25 -3 -55 -7 -67 -10 -12 -2 -53 -8 -90 -11 -37 -4
-70 -9 -73 -10 -3 -2 -33 -6 -67 -10 -34 -3 -72 -8 -85 -11 -13 -2 -36 -6 -53
-8 -69 -9 -142 -19 -165 -21 -14 -2 -38 -5 -55 -8 -16 -3 -55 -9 -85 -13 -30
-4 -64 -8 -75 -10 -11 -1 -42 -5 -70 -9 -27 -3 -66 -8 -85 -11 -19 -3 -46 -7
-60 -9 -82 -9 -137 -17 -150 -20 -8 -2 -40 -7 -70 -9 -30 -3 -66 -8 -80 -10
-14 -3 -45 -7 -70 -10 -25 -3 -56 -8 -70 -11 -34 -7 -149 -19 -182 -20 -16 0
-28 -3 -28 -6 0 -3 -6 -6 -12 -6 -17 0 -116 -12 -148 -18 -25 -4 -98 -14 -157
-20 -17 -2 -51 -7 -75 -11 -24 -3 -56 -8 -73 -10 -16 -1 -46 -5 -65 -8 -19 -3
-55 -8 -80 -11 -25 -3 -58 -7 -75 -10 -16 -3 -46 -7 -65 -9 -19 -2 -71 -10
-115 -16 -44 -6 -93 -13 -110 -15 -100 -13 -124 -18 -119 -27 12 -19 7 -6180
-5 -6223 -14 -52 -73 -116 -136 -145 -76 -36 -190 -35 -268 3 -49 25 -122 93
-122 116 0 3 -5 13 -10 21 -6 9 -10 1162 -10 3090 -1 2701 -2 3075 -15 3071
-8 -2 -33 -5 -55 -7 -22 -2 -56 -7 -75 -10 -44 -7 -81 -12 -145 -19 -103 -12
-134 -16 -215 -30 -14 -2 -45 -7 -70 -10 -54 -6 -98 -12 -149 -20 -21 -3 -56
-7 -77 -10 -21 -2 -57 -7 -79 -10 -22 -3 -55 -8 -74 -10 -19 -2 -48 -6 -65 -9
-17 -2 -58 -8 -91 -12 -33 -3 -69 -8 -80 -10 -11 -3 -38 -7 -60 -9 -22 -3 -74
-10 -115 -15 -111 -16 -130 -18 -185 -25 -27 -3 -61 -8 -75 -10 -54 -10 -87
-15 -130 -20 -25 -2 -60 -7 -78 -9 -18 -3 -69 -10 -115 -16 -45 -6 -98 -13
-117 -16 -43 -6 -103 -14 -150 -19 -19 -2 -35 -5 -35 -6 0 -1 -11 -3 -25 -4
-37 -4 -111 -14 -140 -19 -14 -2 -52 -7 -85 -11 -33 -3 -67 -8 -75 -10 -8 -2
-35 -6 -60 -9 -112 -14 -175 -22 -305 -40 -16 -3 -50 -7 -75 -11 -25 -3 -61
-8 -80 -11 -19 -2 -46 -6 -60 -8 -45 -5 -134 -18 -160 -21 -14 -3 -43 -6 -65
-9 -78 -10 -120 -16 -140 -20 -11 -2 -47 -7 -80 -10 -33 -4 -85 -11 -115 -16
-30 -5 -77 -11 -105 -15 -67 -7 -134 -16 -166 -21 -15 -2 -47 -6 -70 -9 -24
-3 -51 -7 -59 -10 -8 -2 -40 -6 -70 -10 -30 -3 -65 -7 -78 -10 -13 -2 -50 -7
-83 -10 -33 -4 -69 -8 -79 -10 -10 -2 -40 -6 -67 -10 -26 -4 -61 -9 -78 -12
-16 -2 -46 -6 -65 -8 -19 -2 -48 -6 -65 -9 -16 -2 -55 -8 -85 -11 -61 -7 -85
-10 -149 -20 -24 -4 -58 -9 -75 -10 -17 -2 -44 -6 -61 -8 -16 -3 -51 -8 -77
-11 -88 -11 -143 -18 -163 -22 -19 -4 -84 -12 -150 -19 -16 -2 -30 -4 -30 -5
0 -1 -16 -3 -35 -6 -19 -2 -51 -7 -70 -9 -19 -3 -53 -8 -75 -10 -22 -3 -49 -7
-59 -9 -19 -3 -19 -46 -18 -2367 0 -1405 -3 -2376 -9 -2394 -12 -39 -65 -75
-115 -77 -74 -3 -91 2 -129 35 l-39 34 -1 2364 c0 1556 -4 2363 -10 2362 -18
-3 -100 -14 -140 -19 -22 -2 -56 -7 -75 -10 -121 -18 -154 -22 -210 -28 -25
-2 -58 -7 -75 -10 -16 -3 -68 -10 -115 -16 -47 -6 -101 -13 -120 -16 -53 -8
-102 -15 -135 -19 -16 -2 -46 -6 -65 -9 -19 -3 -57 -8 -85 -11 -27 -3 -65 -8
-82 -11 -18 -2 -48 -6 -65 -8 -18 -3 -55 -8 -83 -12 -27 -4 -61 -8 -75 -10
-14 -1 -25 -3 -25 -4 0 -1 -13 -3 -30 -5 -16 -1 -66 -7 -110 -14 -91 -12 -159
-22 -195 -26 -14 -1 -45 -6 -70 -10 -25 -4 -61 -9 -80 -10 -19 -2 -45 -6 -57
-9 -19 -4 -55 -9 -163 -21 -14 -2 -25 -4 -25 -5 0 -1 -16 -3 -35 -5 -55 -5
-246 -30 -380 -50 -45 -6 -104 -14 -150 -20 -25 -4 -56 -8 -70 -10 -14 -2 -45
-6 -70 -9 -25 -3 -56 -8 -69 -11 -13 -2 -49 -7 -80 -10 -31 -3 -83 -10 -116
-15 -33 -5 -80 -12 -105 -15 -59 -7 -118 -15 -155 -21 -16 -3 -48 -7 -69 -9
-44 -5 -65 -8 -221 -30 -60 -8 -127 -18 -147 -20 -71 -9 -123 -16 -148 -20
-14 -2 -50 -7 -80 -10 -30 -4 -56 -8 -56 -8 -2 -3 -83 -336 -90 -367 -3 -14
-10 -43 -16 -65 -5 -22 -12 -47 -13 -55 -2 -8 -11 -42 -19 -75 -9 -33 -19 -73
-22 -90 -3 -16 -14 -63 -25 -105 -12 -41 -23 -86 -25 -100 -3 -14 -10 -43 -16
-65 -6 -22 -13 -49 -15 -60 -2 -11 -8 -38 -14 -60 -6 -22 -12 -47 -14 -55 -3
-12 -30 -124 -51 -205 -3 -11 -7 -29 -9 -40 -7 -32 -13 -55 -30 -125 -9 -36
-18 -72 -20 -80 -2 -8 -13 -53 -25 -100 -12 -47 -24 -93 -26 -104 -2 -10 -13
-56 -24 -101 -11 -45 -23 -91 -25 -101 -2 -11 -24 -101 -49 -201 -25 -100 -48
-192 -50 -205 -3 -13 -9 -38 -15 -55 -5 -18 -8 -33 -6 -33 3 0 0 -11 -5 -25
-5 -14 -12 -36 -14 -48 -2 -12 -25 -105 -51 -207 -25 -102 -48 -194 -50 -205
-2 -11 -4 -20 -5 -20 -2 0 -2 -3 -15 -60 -9 -42 -13 -60 -15 -62 -3 -3 -3 -3
-15 -58 -4 -22 -10 -44 -11 -50 -10 -32 -25 -95 -30 -125 -3 -19 -9 -39 -12
-44 -3 -5 -9 -28 -14 -50 -4 -23 -10 -50 -13 -61 -5 -21 -12 -52 -20 -86 -10
-45 -17 -59 -46 -84 -55 -45 -111 -33 -159 36 -19 28 -40 56 -45 62 -6 7 -32
44 -58 82 -27 39 -71 102 -98 140 -27 39 -66 95 -87 125 -20 30 -40 60 -45 65
-4 6 -30 42 -57 80 -27 39 -53 75 -57 80 -4 6 -32 46 -62 90 -30 44 -57 82
-60 85 -3 3 -10 13 -16 22 -14 23 -237 341 -307 438 -32 44 -58 84 -58 89 0 5
-4 11 -8 13 -4 2 -28 32 -52 68 -25 36 -47 67 -50 70 -3 3 -28 38 -55 78 -27
40 -55 77 -61 83 -8 7 -31 -12 -75 -63 -35 -40 -71 -79 -79 -88 -8 -9 -35 -40
-60 -70 -25 -29 -58 -68 -75 -85 -26 -28 -82 -91 -148 -169 -33 -38 -52 -60
-137 -156 -46 -52 -88 -100 -94 -106 -6 -6 -31 -35 -55 -64 -25 -29 -50 -58
-56 -64 -12 -12 -148 -167 -180 -205 -11 -13 -25 -29 -30 -35 -11 -12 -136
-154 -330 -376 -57 -65 -93 -106 -117 -131 -10 -11 -18 -21 -18 -23 0 -3 -21
-27 -48 -55 -26 -28 -56 -61 -67 -74 -38 -45 -130 -151 -145 -167 -8 -9 -40
-45 -70 -80 -30 -36 -63 -72 -72 -81 -10 -9 -18 -21 -18 -28 0 -6 -7 -11 -15
-11 -8 0 -15 -3 -15 -7 0 -5 -12 -21 -26 -38 -93 -110 -124 -144 -160 -182
-23 -24 -39 -43 -36 -43 2 0 -10 -14 -27 -32 -31 -31 -40 -58 -21 -58 6 0 10
-4 10 -10 0 -5 22 -48 50 -96 27 -48 50 -91 50 -95 0 -5 5 -9 11 -9 5 0 8 -4
5 -9 -3 -5 1 -14 9 -21 8 -7 15 -16 15 -20 0 -5 22 -45 50 -89 27 -44 50 -85
50 -91 0 -5 5 -10 10 -10 6 0 10 -7 10 -15 0 -8 5 -15 10 -15 6 0 10 -5 10
-11 0 -6 14 -30 30 -54 17 -24 30 -48 30 -54 0 -6 5 -11 10 -11 6 0 10 -4 10
-10 0 -5 25 -46 55 -90 30 -44 55 -83 55 -86 0 -3 5 -10 10 -17 6 -7 21 -28
33 -47 40 -62 160 -234 181 -262 12 -14 46 -61 76 -105 30 -43 65 -89 77 -103
13 -14 23 -28 23 -31 0 -3 8 -15 18 -26 9 -11 28 -35 42 -53 74 -98 184 -238
208 -264 15 -17 39 -47 53 -66 15 -19 35 -44 46 -55 10 -11 26 -30 34 -43 9
-12 32 -39 50 -60 19 -20 66 -73 104 -117 38 -44 74 -85 80 -91 5 -6 46 -51
90 -100 294 -324 742 -756 1040 -1003 28 -23 59 -50 70 -60 11 -10 83 -69 160
-130 77 -62 152 -123 168 -136 15 -14 31 -25 35 -25 4 0 18 -10 32 -23 14 -12
63 -50 110 -85 47 -35 92 -69 101 -76 18 -15 134 -96 158 -111 9 -5 18 -13 21
-16 3 -3 41 -30 85 -60 44 -30 82 -57 83 -61 2 -5 7 -8 11 -8 4 0 61 -35 127
-79 165 -108 364 -231 375 -231 5 0 9 -4 9 -10 0 -5 6 -10 14 -10 8 0 21 -6
28 -13 7 -7 45 -30 83 -51 39 -21 78 -46 88 -54 9 -8 17 -11 17 -7 0 4 8 1 18
-7 9 -9 49 -32 87 -53 39 -20 106 -57 150 -81 90 -49 474 -241 605 -303 153
-71 508 -225 520 -226 3 0 26 -8 50 -19 25 -10 54 -22 65 -26 11 -4 31 -12 45
-18 14 -7 52 -21 85 -32 33 -12 69 -25 80 -30 18 -7 52 -20 65 -25 3 -1 12 -5
20 -8 76 -32 622 -205 795 -252 55 -15 106 -29 113 -31 7 -2 14 -4 17 -4 3 -1
19 -6 37 -11 18 -6 41 -12 50 -15 10 -2 26 -6 35 -8 20 -5 122 -31 168 -42 17
-4 35 -8 40 -10 27 -8 325 -72 365 -79 19 -3 51 -10 70 -15 19 -5 53 -11 75
-15 22 -3 47 -7 55 -10 8 -2 31 -6 50 -9 19 -3 46 -8 60 -11 13 -2 40 -7 60
-10 20 -3 45 -7 55 -9 11 -2 56 -9 100 -16 118 -17 137 -20 165 -25 14 -2 48
-7 75 -10 28 -3 61 -8 75 -10 14 -2 52 -6 85 -10 33 -3 71 -7 85 -10 14 -2 54
-7 90 -10 36 -3 76 -7 90 -10 14 -2 66 -7 115 -10 50 -3 115 -8 145 -11 282
-26 1057 -37 1385 -20 226 12 349 20 475 31 25 2 80 7 122 10 43 3 86 8 95 10
10 1 47 6 83 10 36 4 76 8 90 10 14 2 54 6 90 10 36 4 74 9 85 11 10 2 37 6
60 9 71 10 289 44 315 49 14 3 41 8 60 10 34 5 45 7 145 26 28 5 61 12 75 14
14 3 36 8 50 11 14 3 39 8 55 11 17 3 82 17 145 31 63 14 124 26 135 28 16 2
352 87 438 110 9 3 25 7 35 10 114 30 233 65 252 72 8 3 22 8 30 10 8 2 22 5
30 8 8 2 15 4 15 5 0 1 7 3 15 5 8 2 80 25 160 51 80 26 147 49 150 49 3 1 12
4 20 8 8 3 53 18 100 34 47 15 88 32 91 36 3 5 8 8 10 6 7 -4 166 52 284 100
11 5 92 38 180 75 89 36 166 66 173 66 7 0 12 5 12 10 0 6 7 10 15 10 8 0 23
4 33 10 43 24 195 90 208 90 8 0 14 4 14 8 0 5 18 15 40 22 22 7 40 17 40 22
0 4 6 8 14 8 8 0 89 38 180 84 91 46 166 81 166 78 0 -3 8 1 18 9 9 8 26 19
37 25 47 26 222 119 250 133 17 8 32 17 35 20 3 3 25 17 50 30 25 13 53 31 63
39 9 8 17 12 17 9 0 -6 56 26 125 71 11 7 28 15 38 18 9 4 17 10 17 14 0 4 8
11 18 14 21 8 47 23 92 56 19 14 35 23 35 21 0 -13 606 393 613 411 2 4 8 8
13 8 8 0 166 114 216 155 7 6 33 26 59 45 98 73 428 338 474 380 9 8 40 35 70
60 29 25 63 54 76 65 12 11 52 47 90 80 268 239 634 601 829 820 33 37 71 79
85 94 57 62 174 196 231 265 13 16 33 39 44 52 11 13 31 38 45 56 14 18 39 48
56 68 160 184 734 981 734 1020 0 5 4 10 9 10 5 0 14 14 21 30 7 17 16 30 21
30 5 0 9 5 9 11 0 6 14 30 30 54 17 24 30 46 30 50 0 3 5 11 10 18 17 19 145
238 242 412 49 88 93 167 98 175 4 8 23 44 42 80 18 36 36 68 41 71 5 3 8 9 8
13 0 3 48 106 108 228 127 262 171 355 171 362 0 2 14 35 31 73 59 131 67 149
139 333 40 102 78 199 85 215 7 17 18 46 25 65 6 19 16 44 21 55 8 19 57 158
63 180 2 6 6 17 9 25 17 46 118 357 122 380 2 8 4 16 5 18 2 1 3 5 4 10 1 4
13 41 25 82 13 41 25 84 27 97 2 12 9 35 15 50 6 16 12 35 14 43 2 8 16 62 30
120 15 58 29 112 30 120 2 8 4 15 6 15 1 0 3 9 5 20 1 11 10 45 18 75 8 30 17
67 21 83 9 49 13 65 34 152 5 22 12 54 15 70 3 17 9 44 12 60 4 17 8 39 10 50
1 11 3 20 4 20 2 0 8 29 15 75 10 61 19 108 30 160 14 66 18 87 21 115 1 17 5
39 7 50 3 11 8 40 12 65 3 25 9 59 11 75 3 17 7 44 9 60 2 17 5 44 8 60 3 17
8 53 12 80 3 28 8 57 10 65 2 8 6 44 10 80 3 36 8 81 11 100 2 19 6 60 9 90 2
30 7 67 10 81 3 14 7 59 9 100 5 83 15 221 21 289 20 234 27 1037 11 1320 -4
80 -9 172 -11 205 -2 54 -6 94 -20 250 -3 28 -7 75 -10 105 -3 30 -7 78 -10
105 -11 94 -13 120 -19 180 -4 33 -9 76 -12 95 -3 19 -8 49 -10 65 -5 40 -24
174 -30 205 -2 14 -7 45 -10 70 -3 25 -8 47 -9 50 -2 3 -7 33 -10 65 -4 33 -9
63 -11 66 -3 6 -13 57 -19 99 -6 45 -18 90 -24 89 -3 0 -13 -4 -21 -10z"/>
</g>
</svg>
